<svg xmlns="http://www.w3.org/2000/svg" viewBox="0 0 760 320" role="img" aria-label="Tech Trend Monitor light logo">
  <defs>
    <linearGradient id="lightHexStroke" x1="0%" y1="0%" x2="100%" y2="100%">
      <stop offset="0%" stop-color="#b38cff"/>
      <stop offset="100%" stop-color="#8d6ae8"/>
    </linearGradient>
    <linearGradient id="lightLineStroke" x1="0%" y1="0%" x2="100%" y2="0%">
      <stop offset="0%" stop-color="#9b7ff0"/>
      <stop offset="100%" stop-color="#c0a6ff"/>
    </linearGradient>
  </defs>

  <g transform="translate(14,18)">
    <polygon points="110,0 205,55 205,165 110,220 15,165 15,55" fill="#f0ebff" fill-opacity="0.65" stroke="url(#lightHexStroke)" stroke-width="4"/>
    <polygon points="110,14 193,62 193,158 110,206 27,158 27,62" fill="none" stroke="#c5b0ff" stroke-width="2"/>

    <line x1="63" y1="94" x2="152" y2="94" stroke="#b79bff" stroke-width="3" stroke-linecap="round"/>
    <line x1="152" y1="94" x2="172" y2="136" stroke="#c9b9ff" stroke-width="2" stroke-linecap="round"/>
    <line x1="63" y1="94" x2="43" y2="136" stroke="#c9b9ff" stroke-width="2" stroke-linecap="round"/>
    <line x1="63" y1="94" x2="110" y2="182" stroke="#d8ccff" stroke-width="2" stroke-dasharray="6 6"/>

    <polyline points="43,136 80,146 107,143 138,110 170,80" fill="none" stroke="url(#lightLineStroke)" stroke-width="6" stroke-linecap="round" stroke-linejoin="round"/>

    <circle cx="43" cy="136" r="5" fill="#9b7ff0"/>
    <circle cx="63" cy="94" r="6" fill="#a88df5"/>
    <circle cx="110" cy="182" r="5" fill="#9b7ff0"/>
    <circle cx="172" cy="136" r="5" fill="#bda4ff"/>
    <circle cx="138" cy="110" r="10" fill="none" stroke="#b79bff" stroke-width="4"/>

    <line x1="167" y1="81" x2="181" y2="67" stroke="#a88df5" stroke-width="5" stroke-linecap="round"/>
    <polyline points="164,68 182,68 182,86" fill="none" stroke="#a88df5" stroke-width="4" stroke-linecap="round" stroke-linejoin="round"/>
  </g>

  <g transform="translate(270,54)">
    <text x="0" y="60" font-family="Inter, Arial, sans-serif" font-size="90" font-weight="700" letter-spacing="5" fill="#180d23">TECH</text>
    <text x="8" y="152" font-family="Inter, Arial, sans-serif" font-size="74" font-weight="500" letter-spacing="15" fill="#7755d4">TREND</text>
    <text x="10" y="238" font-family="Inter, Arial, sans-serif" font-size="60" font-weight="500" letter-spacing="18" fill="#b18cee">MONITOR</text>
    <line x1="290" y1="108" x2="525" y2="108" stroke="#e6dbfb" stroke-width="3"/>
  </g>
</svg>
