<?xml version="1.0" encoding="UTF-8"?>
<svg version="1.1" xmlns="http://www.w3.org/2000/svg" width="635" height="283">
<path d="M0 0 C209.55 0 419.1 0 635 0 C635 93.39 635 186.78 635 283 C425.45 283 215.9 283 0 283 C0 189.61 0 96.22 0 0 Z " fill="#10071C" transform="translate(0,0)"/>
<path d="M0 0 C2.74273706 0.9944172 5.16414854 2.31139926 7.71069336 3.73730469 C8.80800781 4.34912598 9.90532227 4.96094727 11.03588867 5.59130859 C12.22055362 6.25829548 13.40512164 6.92545455 14.58959961 7.59277344 C15.81436638 8.27845794 17.0393031 8.96383896 18.2644043 9.64892578 C28.93321534 15.6235021 39.543387 21.69966987 50.15209961 27.78027344 C57.74209961 32.07027344 65.33209961 36.36027344 73.15209961 40.78027344 C73.15209961 68.83027344 73.15209961 96.88027344 73.15209961 125.78027344 C64.24209961 130.73027344 55.33209961 135.68027344 46.15209961 140.78027344 C32.33859594 148.61119433 32.33859594 148.61119433 18.65991211 156.67089844 C17.56638428 157.3230835 16.47285645 157.97526855 15.34619141 158.6472168 C13.21365569 159.92123862 11.08722506 161.20554906 8.96777344 162.5012207 C7.52567505 163.36058228 7.52567505 163.36058228 6.05444336 164.23730469 C5.20358154 164.75268799 4.35271973 165.26807129 3.47607422 165.79907227 C1.15209961 166.78027344 1.15209961 166.78027344 -0.82226562 166.61523438 C-3.38015693 165.56087879 -5.74468029 164.31519194 -8.16040039 162.96386719 C-9.22218506 162.37234863 -10.28396973 161.78083008 -11.37792969 161.17138672 C-12.52302002 160.52669434 -13.66811035 159.88200195 -14.84790039 159.21777344 C-16.04933268 158.54547383 -17.25091407 157.8734406 -18.45263672 157.20166016 C-29.37891265 151.08322684 -40.24903843 144.86592002 -51.10961914 138.63183594 C-58.66823821 134.31137309 -66.25972923 130.04861971 -73.84790039 125.78027344 C-73.84790039 97.73027344 -73.84790039 69.68027344 -73.84790039 40.78027344 C-64.93790039 35.83027344 -56.02790039 30.88027344 -46.84790039 25.78027344 C-41.96515725 23.02117313 -37.08754071 20.25794268 -32.22290039 17.46777344 C-31.05892923 16.80363221 -29.8948646 16.13965477 -28.73071289 15.47583008 C-23.60163258 12.54578741 -18.49416389 9.58831677 -13.44946289 6.51464844 C-12.26344482 5.79595581 -12.26344482 5.79595581 -11.0534668 5.06274414 C-9.63472616 4.19758561 -8.22231675 3.32191158 -6.81811523 2.43334961 C-2.36802219 -0.2815722 -2.36802219 -0.2815722 0 0 Z " fill="#241644" transform="translate(101.847900390625,15.2197265625)"/>
<path d="M0 0 C2.74273706 0.9944172 5.16414854 2.31139926 7.71069336 3.73730469 C8.80800781 4.34912598 9.90532227 4.96094727 11.03588867 5.59130859 C12.22055362 6.25829548 13.40512164 6.92545455 14.58959961 7.59277344 C15.81436638 8.27845794 17.0393031 8.96383896 18.2644043 9.64892578 C28.93321534 15.6235021 39.543387 21.69966987 50.15209961 27.78027344 C57.74209961 32.07027344 65.33209961 36.36027344 73.15209961 40.78027344 C73.15209961 68.83027344 73.15209961 96.88027344 73.15209961 125.78027344 C64.24209961 130.73027344 55.33209961 135.68027344 46.15209961 140.78027344 C32.33859594 148.61119433 32.33859594 148.61119433 18.65991211 156.67089844 C17.56638428 157.3230835 16.47285645 157.97526855 15.34619141 158.6472168 C13.21365569 159.92123862 11.08722506 161.20554906 8.96777344 162.5012207 C7.52567505 163.36058228 7.52567505 163.36058228 6.05444336 164.23730469 C5.20358154 164.75268799 4.35271973 165.26807129 3.47607422 165.79907227 C1.15209961 166.78027344 1.15209961 166.78027344 -0.82226562 166.61523438 C-3.38015693 165.56087879 -5.74468029 164.31519194 -8.16040039 162.96386719 C-9.22218506 162.37234863 -10.28396973 161.78083008 -11.37792969 161.17138672 C-12.52302002 160.52669434 -13.66811035 159.88200195 -14.84790039 159.21777344 C-16.04933268 158.54547383 -17.25091407 157.8734406 -18.45263672 157.20166016 C-29.37891265 151.08322684 -40.24903843 144.86592002 -51.10961914 138.63183594 C-58.66823821 134.31137309 -66.25972923 130.04861971 -73.84790039 125.78027344 C-73.84790039 97.73027344 -73.84790039 69.68027344 -73.84790039 40.78027344 C-64.93790039 35.83027344 -56.02790039 30.88027344 -46.84790039 25.78027344 C-41.96515725 23.02117313 -37.08754071 20.25794268 -32.22290039 17.46777344 C-31.05892923 16.80363221 -29.8948646 16.13965477 -28.73071289 15.47583008 C-23.60163258 12.54578741 -18.49416389 9.58831677 -13.44946289 6.51464844 C-12.26344482 5.79595581 -12.26344482 5.79595581 -11.0534668 5.06274414 C-9.63472616 4.19758561 -8.22231675 3.32191158 -6.81811523 2.43334961 C-2.36802219 -0.2815722 -2.36802219 -0.2815722 0 0 Z M-6.66040039 15.31542969 C-7.64065186 15.87037109 -8.62090332 16.4253125 -9.63085938 16.99707031 C-11.22329468 17.91069336 -11.22329468 17.91069336 -12.84790039 18.84277344 C-15.10925326 20.12597052 -17.37098566 21.40849894 -19.63305664 22.69042969 C-20.21910172 23.02362213 -20.80514679 23.35681458 -21.40895081 23.70010376 C-25.6436343 26.10620087 -29.89450417 28.48150866 -34.15649414 30.83886719 C-34.75507233 31.17008072 -35.35365051 31.50129425 -35.97036743 31.84254456 C-38.85765979 33.43943062 -41.74600862 35.03438012 -44.63500977 36.62817383 C-45.69397461 37.2146167 -46.75293945 37.80105957 -47.84399414 38.40527344 C-48.76365967 38.91316406 -49.6833252 39.42105469 -50.63085938 39.94433594 C-51.69248291 40.55019531 -52.75410645 41.15605469 -53.84790039 41.78027344 C-54.69241257 42.10465897 -55.53692474 42.42904449 -56.4070282 42.76325989 C-59.48559247 44.14006048 -61.51761889 45.32656043 -63.84790039 47.78027344 C-65.32393283 53.09655925 -65.13628198 58.32976414 -65.00024414 63.79199219 C-64.99427845 65.36805783 -64.99202075 66.94414148 -64.99330139 68.5202179 C-64.98549811 71.81548148 -64.94423126 75.10801197 -64.87695312 78.40258789 C-64.79178341 82.62680157 -64.77288754 86.84802904 -64.77667904 91.07300091 C-64.77532024 94.32374108 -64.7479156 97.57382753 -64.71167183 100.82435036 C-64.69576164 102.38203806 -64.68590682 103.93979976 -64.68220329 105.49756432 C-64.67136706 107.67210848 -64.62764414 109.84347309 -64.57421875 112.01733398 C-64.55515976 113.25388229 -64.53610077 114.4904306 -64.51646423 115.76445007 C-64.13952573 118.96301751 -64.13952573 118.96301751 -61.42750549 120.70295715 C-59.00623442 121.90873057 -59.00623442 121.90873057 -56.84790039 121.78027344 C-56.84790039 120.79027344 -56.84790039 119.80027344 -56.84790039 118.78027344 C-56.1427832 118.52503906 -55.43766602 118.26980469 -54.71118164 118.00683594 C-51.57826559 116.66476822 -48.89075614 115.01297477 -46.03540039 113.15527344 C-44.57166992 112.2078125 -44.57166992 112.2078125 -43.07836914 111.24121094 C-42.34231445 110.75910156 -41.60625977 110.27699219 -40.84790039 109.78027344 C-44.74799253 105.66936551 -47.42498297 104.0892535 -52.84790039 102.78027344 C-52.51790039 101.13027344 -52.18790039 99.48027344 -51.84790039 97.78027344 C-50.36290039 97.28527344 -50.36290039 97.28527344 -48.84790039 96.78027344 C-46.60974471 93.37579466 -44.83752652 89.73108972 -43.01245117 86.09082031 C-42.10965643 84.30354701 -41.17230441 82.53386593 -40.23461914 80.76464844 C-36.73025854 73.83432456 -34.98612579 69.42334811 -36.84790039 61.78027344 C-34.20790039 61.78027344 -31.56790039 61.78027344 -28.84790039 61.78027344 C-28.51790039 62.77027344 -28.18790039 63.76027344 -27.84790039 64.78027344 C-20.32025222 64.84971243 -12.79263715 64.90305348 -5.2647419 64.93570995 C-1.7693973 64.95138169 1.72572857 64.97264675 5.22094727 65.0065918 C9.23708219 65.04535284 13.25298652 65.05997008 17.26928711 65.07324219 C18.52764374 65.08872604 19.78600037 65.1042099 21.08248901 65.12016296 C22.24354156 65.12038956 23.40459412 65.12061615 24.60083008 65.12084961 C25.62675262 65.12751144 26.65267517 65.13417328 27.70968628 65.14103699 C28.51568268 65.02198502 29.32167908 64.90293304 30.15209961 64.78027344 C30.81209961 63.79027344 31.47209961 62.80027344 32.15209961 61.78027344 C34.77709961 61.59277344 34.77709961 61.59277344 37.15209961 61.78027344 C38.14209961 63.76027344 38.14209961 63.76027344 39.15209961 65.78027344 C42.96894187 64.22526363 45.34405693 61.74431849 48.15209961 58.78027344 C44.85209961 58.78027344 41.55209961 58.78027344 38.15209961 58.78027344 C38.15209961 57.79027344 38.15209961 56.80027344 38.15209961 55.78027344 C44.42209961 55.45027344 50.69209961 55.12027344 57.15209961 54.78027344 C56.69834961 56.28589844 56.24459961 57.79152344 55.77709961 59.34277344 C54.53542225 63.47973639 53.32674643 67.62383084 52.15209961 71.78027344 C51.49209961 71.78027344 50.83209961 71.78027344 50.15209961 71.78027344 C50.68935856 68.40321719 51.26274584 65.08358744 52.15209961 61.78027344 C47.29429449 64.4334558 43.20710411 67.88840998 38.96459961 71.40527344 C37.53499483 72.58663874 36.10406784 73.76640636 34.67163086 74.94433594 C34.04361572 75.46463379 33.41560059 75.98493164 32.76855469 76.52099609 C31.15209961 77.78027344 31.15209961 77.78027344 29.15209961 78.78027344 C28.92522461 79.74964844 28.69834961 80.71902344 28.46459961 81.71777344 C28.03147461 82.72839844 27.59834961 83.73902344 27.15209961 84.78027344 C26.17112305 84.9775 25.19014648 85.17472656 24.17944336 85.37792969 C18.22036171 86.85222346 14.4739864 91.98182108 10.40209961 96.28027344 C8.72179328 98.02177453 7.03958581 99.76144387 5.35522461 101.49902344 C4.25162598 102.65821289 4.25162598 102.65821289 3.12573242 103.84082031 C-0.8777325 107.77495259 -0.8777325 107.77495259 -3.98461914 107.79199219 C-4.82637695 107.685 -5.66813477 107.57800781 -6.53540039 107.46777344 C-8.02040039 107.33435547 -8.02040039 107.33435547 -9.53540039 107.19824219 C-12.84790039 106.78027344 -12.84790039 106.78027344 -16.28540039 105.95605469 C-30.13218391 103.46074891 -39.65308103 111.4096265 -50.67163086 119.046875 C-53.0607281 120.76883814 -53.0607281 120.76883814 -54.84790039 123.78027344 C-53.35833583 124.62275455 -51.86874708 125.46519288 -50.37915039 126.30761719 C-49.42242432 126.84878174 -48.46569824 127.38994629 -47.47998047 127.94750977 C-45.38411794 129.13209931 -43.28759552 130.31552205 -41.19042969 131.49780273 C-36.41316758 134.19192432 -31.64056015 136.89144692 -26.89868164 139.64746094 C-25.81200195 140.27406616 -25.81200195 140.27406616 -24.70336914 140.91333008 C-23.37253222 141.68164666 -22.04547855 142.45656603 -20.72290039 143.23901367 C-17.38266471 145.1570112 -15.81668839 145.78027344 -11.84790039 145.78027344 C-11.51790039 146.77027344 -11.18790039 147.76027344 -10.84790039 148.78027344 C-7.8633091 150.73569532 -6.58375249 150.78027344 -2.84790039 150.78027344 C-2.51790039 151.77027344 -2.18790039 152.76027344 -1.84790039 153.78027344 C3.14423812 153.31226045 7.28173954 150.86311607 11.15209961 147.78027344 C11.15209961 147.12027344 11.15209961 146.46027344 11.15209961 145.78027344 C12.3315918 145.70099609 12.3315918 145.70099609 13.53491211 145.62011719 C18.59641144 144.44493106 22.58390675 141.97590053 27.02709961 139.34277344 C27.90624023 138.83939453 28.78538086 138.33601563 29.69116211 137.81738281 C32.99781959 135.91466637 32.99781959 135.91466637 36.15209961 133.78027344 C36.15209961 133.12027344 36.15209961 132.46027344 36.15209961 131.78027344 C37.08022461 131.65652344 38.00834961 131.53277344 38.96459961 131.40527344 C42.29135196 130.96494262 42.29135196 130.96494262 45.15209961 128.78027344 C45.15209961 128.12027344 45.15209961 127.46027344 45.15209961 126.78027344 C46.01212585 126.66784805 46.8721521 126.55542267 47.75823975 126.43959045 C53.82097967 125.26179651 58.73161659 123.17075342 63.15209961 118.78027344 C64.83056864 113.3764136 64.55637839 108.14447919 64.32397461 102.56542969 C64.3015685 100.98366251 64.28449851 99.40181155 64.27252197 97.81993103 C64.22688425 93.67315233 64.10920898 89.53148773 63.97607422 85.38671875 C63.85289833 81.15076909 63.79842481 76.91398537 63.73803711 72.67675781 C63.60966584 64.37559263 63.40512067 56.07857053 63.15209961 47.78027344 C50.10061721 40.39566326 37.04410633 33.02143808 23.94848633 25.71533203 C19.47102691 23.21353144 14.99935961 20.70644115 10.57006836 18.12011719 C9.58695679 17.54741089 9.58695679 17.54741089 8.58398438 16.96313477 C6.92872627 15.994045 5.27843381 15.01648652 3.62866211 14.03808594 C-0.6519519 11.86402015 -2.74349423 13.07840354 -6.66040039 15.31542969 Z " fill="#231542" transform="translate(101.847900390625,15.2197265625)"/>
<path d="M0 0 C7.51024979 -0.11582029 15.02040709 -0.20467737 22.53134632 -0.25906086 C26.01902101 -0.28516211 29.50608503 -0.32056666 32.9934082 -0.37719727 C37.00217567 -0.44188862 41.0103012 -0.46617566 45.01953125 -0.48828125 C46.27272659 -0.51408768 47.52592194 -0.5398941 48.8170929 -0.56648254 C49.97806992 -0.5668602 51.13904694 -0.56723785 52.33520508 -0.56762695 C53.35890701 -0.57873001 54.38260895 -0.58983307 55.43733215 -0.60127258 C58 0 58 0 59.85404968 2.53547668 C60.23221329 3.34876938 60.61037689 4.16206207 61 5 C58.08198264 7.65274306 56.27688197 8.93794025 52.375 9.8125 C51.26125 10.204375 50.1475 10.59625 49 11 C48.28191434 12.69484771 47.56935889 14.39256502 46.90234375 16.1081543 C45.35782983 19.34636813 42.89590404 21.56521136 40.3125 24 C39.78229248 24.51473877 39.25208496 25.02947754 38.70581055 25.55981445 C34.59714876 29.51913824 30.35469006 33.31342677 26 37 C25.67 37.33 25.34 37.66 25 38 C23.10121874 37.9333761 21.20492519 37.79392577 19.3125 37.625 C17.55292969 37.48578125 17.55292969 37.48578125 15.7578125 37.34375 C13.26910958 37.11609318 10.78391441 36.84573967 8.3046875 36.53125 C0.4452809 35.52991626 0.4452809 35.52991626 -6.625 38.5 C-7.47964844 39.22703125 -7.47964844 39.22703125 -8.3515625 39.96875 C-10 41 -10 41 -12.04296875 40.76171875 C-14.9523204 39.62933637 -16.79242521 38.20757479 -19 36 C-21.00091154 29.13582096 -17.93707423 24.55613217 -14.85083008 18.49389648 C-13.93756792 16.68763433 -13.0667699 14.86476266 -12.19726562 13.03710938 C-11.62556641 11.89435547 -11.05386719 10.75160156 -10.46484375 9.57421875 C-9.945271 8.52838623 -9.42569824 7.48255371 -8.89038086 6.4050293 C-7 4 -7 4 -3.78344727 3.15161133 C-2.86490967 3.10157959 -1.94637207 3.05154785 -1 3 C-0.67 2.01 -0.34 1.02 0 0 Z " fill="#231543" transform="translate(74,82)"/>
<path d="M0 0 C4.55249299 5.74546555 8.65006143 12.44229117 9.375 19.8125 C7.32076515 24.57458988 4.09113209 26.928404 0 30 C-0.81210938 30.62003906 -1.62421875 31.24007812 -2.4609375 31.87890625 C-4.37736219 33.32583435 -6.30268222 34.76101918 -8.234375 36.1875 C-11.2746185 38.44129753 -14.27226144 40.74683905 -17.265625 43.0625 C-18.19866455 43.78187744 -19.1317041 44.50125488 -20.09301758 45.24243164 C-21.96600173 46.68780118 -23.83572571 48.13740687 -25.7019043 49.59155273 C-26.57242432 50.26130127 -27.44294434 50.9310498 -28.33984375 51.62109375 C-29.50567993 52.52492798 -29.50567993 52.52492798 -30.69506836 53.44702148 C-35.34588351 56.58057039 -39.40070512 57.79313479 -45 57 C-48.00527096 55.20650748 -50.52482367 52.95573885 -53.125 50.625 C-54.61434892 49.34196427 -56.10525234 48.06073093 -57.59765625 46.78125 C-58.33387207 46.14316406 -59.07008789 45.50507813 -59.82861328 44.84765625 C-62.98784272 42.15943404 -66.25781885 39.63074724 -69.5625 37.125 C-70.11631348 36.70299316 -70.67012695 36.28098633 -71.24072266 35.84619141 C-72.49173104 34.89471455 -73.74550303 33.9468725 -75 33 C-74.69867726 30.08721347 -74.1845777 29.15623431 -71.9140625 27.234375 C-68.24903605 25.68189731 -65.23705241 25.86186786 -61.375 26.25 C-60.66714355 26.30140137 -59.95928711 26.35280273 -59.22998047 26.40576172 C-56.04668134 26.64918623 -52.99604578 27.00077707 -49.859375 27.6171875 C-45.46616995 28.43306844 -43.1295522 28.73355976 -39.28125 26.234375 C-36.11396737 23.42108278 -33.25611729 20.44292447 -30.4765625 17.25 C-29.25 15.875 -29.25 15.875 -27 14 C-24.1875 14.125 -24.1875 14.125 -21 15 C-15.12739907 16.23135181 -11.93780177 16.18889731 -6.69140625 13.16015625 C-1.80761876 9.81030663 -1.19707331 5.52495372 0 0 Z " fill="#20133F" transform="translate(142,95)"/>
<path d="M0 0 C1.35814777 4.0744433 -0.05254238 6.81468116 -1.4375 10.6875 C-1.68048828 11.38939453 -1.92347656 12.09128906 -2.17382812 12.81445312 C-2.7744944 14.54578532 -3.38619719 16.27328137 -4 18 C-5.32 18 -6.64 18 -8 18 C-7.51421457 14.87709365 -7.0013988 12.00419641 -6 9 C-8.20922483 10.7280375 -10.41739506 12.45739512 -12.625 14.1875 C-13.24246094 14.67025391 -13.85992187 15.15300781 -14.49609375 15.65039062 C-17.49428024 18.00160003 -20.44935356 20.37590572 -23.3359375 22.86328125 C-26 25 -26 25 -28 25 C-27.95875 25.78375 -27.9175 26.5675 -27.875 27.375 C-28 30 -28 30 -30 32 C-30.99515625 32.1753125 -31.9903125 32.350625 -33.015625 32.53125 C-38.91854796 34.09720676 -42.69275967 39.21700905 -46.75 43.5 C-48.43030633 45.2415011 -50.1125138 46.98117043 -51.796875 48.71875 C-52.53260742 49.49154297 -53.26833984 50.26433594 -54.02636719 51.06054688 C-58.02983211 54.99467915 -58.02983211 54.99467915 -61.13671875 55.01171875 C-61.97847656 54.90472656 -62.82023437 54.79773438 -63.6875 54.6875 C-65.1725 54.55408203 -65.1725 54.55408203 -66.6875 54.41796875 C-70 54 -70 54 -73.4375 53.17578125 C-86.3909642 50.84145906 -94.50310939 57.4187371 -104.921875 64.5859375 C-105.80456055 65.2154834 -106.68724609 65.8450293 -107.59667969 66.49365234 C-109.81250254 67.88248077 -111.44615055 68.56497109 -114 69 C-114 67.68 -114 66.36 -114 65 C-112.62304688 63.71972656 -112.62304688 63.71972656 -110.71875 62.640625 C-109.70361328 62.05087891 -109.70361328 62.05087891 -108.66796875 61.44921875 C-107.95253906 61.05347656 -107.23710938 60.65773437 -106.5 60.25 C-105.78457031 59.83878906 -105.06914063 59.42757812 -104.33203125 59.00390625 C-102.56227839 57.98924794 -100.78206939 56.99286723 -99 56 C-102.19510891 52.16785689 -102.19510891 52.16785689 -106.6875 50.8125 C-107.450625 50.874375 -108.21375 50.93625 -109 51 C-109.66 50.34 -110.32 49.68 -111 49 C-110.625 46.375 -110.625 46.375 -110 44 C-109.38125 43.95875 -108.7625 43.9175 -108.125 43.875 C-107.42375 43.58625 -106.7225 43.2975 -106 43 C-105.73316406 42.19691406 -105.46632813 41.39382812 -105.19140625 40.56640625 C-104.1836221 37.54966222 -103.06468475 35.07551235 -101.58203125 32.28515625 C-101.13279297 31.43373047 -100.68355469 30.58230469 -100.22070312 29.70507812 C-99.28091301 27.94150528 -98.33033405 26.18364001 -97.36914062 24.43164062 C-94.52077348 18.97810989 -93.52998674 15.99734132 -95 10 C-93.9375 8 -93.9375 8 -92 7 C-88.875 7.1875 -88.875 7.1875 -86 8 C-85.67 8.66 -85.34 9.32 -85 10 C-65.86 10.33 -46.72 10.66 -27 11 C-26.34 9.68 -25.68 8.36 -25 7 C-22.625 6.875 -22.625 6.875 -20 7 C-18 9 -18 9 -18 12 C-15.36 10.02 -12.72 8.04 -10 6 C-12.97 5.67 -15.94 5.34 -19 5 C-19 4.01 -19 3.02 -19 2 C-13.66599596 -0.66700202 -5.85329659 -0.15819721 0 0 Z M-85 13 C-85.33 13.99 -85.66 14.98 -86 16 C-87.37671875 16.07613525 -87.37671875 16.07613525 -88.78125 16.15380859 C-92.14671955 16.69593265 -92.14671955 16.69593265 -93.90625 19.38916016 C-94.4321875 20.42862793 -94.958125 21.4680957 -95.5 22.5390625 C-96.07621094 23.67730469 -96.65242188 24.81554687 -97.24609375 25.98828125 C-97.53339355 26.58592285 -97.82069336 27.18356445 -98.11669922 27.79931641 C-98.99504222 29.61475282 -99.9176999 31.40196718 -100.84765625 33.19140625 C-101.41355469 34.33738281 -101.97945312 35.48335937 -102.5625 36.6640625 C-103.07941406 37.71029785 -103.59632812 38.7565332 -104.12890625 39.83447266 C-105.24695774 43.89743666 -104.5404218 46.12748631 -103 50 C-100.834795 52.59994103 -100.834795 52.59994103 -98 54 C-94.50483938 54 -93.2029286 53.17691211 -90.5625 50.875 C-84.89531173 46.8498432 -75.83698511 49.56042319 -69.4453125 50.55078125 C-63.4620622 51.54128107 -63.4620622 51.54128107 -57.9140625 49.75 C-56.11903747 47.93060811 -54.5840494 46.0041501 -53 44 C-51.69214272 42.80484385 -50.35786534 41.63802048 -49 40.5 C-41.56941879 34.65703192 -41.56941879 34.65703192 -37.125 26.75 C-36 24 -36 24 -33.99609375 23.1015625 C-32.38152028 22.61952291 -30.7601734 22.15958434 -29.1328125 21.72265625 C-26.41803149 20.80281287 -25.30606665 19.52506218 -24 17 C-25.11967629 14.91293836 -25.11967629 14.91293836 -27 13 C-29.63628027 12.41982754 -29.63628027 12.41982754 -32.66479492 12.54589844 C-33.82577194 12.54620056 -34.98674896 12.54650269 -36.1829071 12.54681396 C-38.06270012 12.57778168 -38.06270012 12.57778168 -39.98046875 12.609375 C-41.26359451 12.61503479 -42.54672028 12.62069458 -43.86872864 12.62652588 C-47.27700045 12.64178512 -50.68458839 12.68106779 -54.09259033 12.7253418 C-57.5713984 12.76628922 -61.05031718 12.78453566 -64.52929688 12.8046875 C-71.35314518 12.84756297 -78.17653975 12.9158169 -85 13 Z " fill="#8B6CC4" transform="translate(159,69)"/>
<path d="M0 0 C2.74273706 0.9944172 5.16414854 2.31139926 7.71069336 3.73730469 C8.80800781 4.34912598 9.90532227 4.96094727 11.03588867 5.59130859 C12.22055362 6.25829548 13.40512164 6.92545455 14.58959961 7.59277344 C15.81436638 8.27845794 17.0393031 8.96383896 18.2644043 9.64892578 C28.93321534 15.6235021 39.543387 21.69966987 50.15209961 27.78027344 C57.74209961 32.07027344 65.33209961 36.36027344 73.15209961 40.78027344 C73.15209961 68.83027344 73.15209961 96.88027344 73.15209961 125.78027344 C64.24209961 130.73027344 55.33209961 135.68027344 46.15209961 140.78027344 C32.33859594 148.61119433 32.33859594 148.61119433 18.65991211 156.67089844 C17.56638428 157.3230835 16.47285645 157.97526855 15.34619141 158.6472168 C13.21365569 159.92123862 11.08722506 161.20554906 8.96777344 162.5012207 C7.52567505 163.36058228 7.52567505 163.36058228 6.05444336 164.23730469 C5.20358154 164.75268799 4.35271973 165.26807129 3.47607422 165.79907227 C1.15209961 166.78027344 1.15209961 166.78027344 -0.82226562 166.61523438 C-3.38015693 165.56087879 -5.74468029 164.31519194 -8.16040039 162.96386719 C-9.22218506 162.37234863 -10.28396973 161.78083008 -11.37792969 161.17138672 C-12.52302002 160.52669434 -13.66811035 159.88200195 -14.84790039 159.21777344 C-16.04933268 158.54547383 -17.25091407 157.8734406 -18.45263672 157.20166016 C-29.37891265 151.08322684 -40.24903843 144.86592002 -51.10961914 138.63183594 C-58.66823821 134.31137309 -66.25972923 130.04861971 -73.84790039 125.78027344 C-73.84790039 97.73027344 -73.84790039 69.68027344 -73.84790039 40.78027344 C-64.93790039 35.83027344 -56.02790039 30.88027344 -46.84790039 25.78027344 C-41.96515725 23.02117313 -37.08754071 20.25794268 -32.22290039 17.46777344 C-31.05892923 16.80363221 -29.8948646 16.13965477 -28.73071289 15.47583008 C-23.60163258 12.54578741 -18.49416389 9.58831677 -13.44946289 6.51464844 C-12.26344482 5.79595581 -12.26344482 5.79595581 -11.0534668 5.06274414 C-9.63472616 4.19758561 -8.22231675 3.32191158 -6.81811523 2.43334961 C-2.36802219 -0.2815722 -2.36802219 -0.2815722 0 0 Z M-5.57055664 4.35058594 C-6.57183594 4.9102002 -7.57311523 5.46981445 -8.60473633 6.04638672 C-9.69560547 6.65981934 -10.78647461 7.27325195 -11.91040039 7.90527344 C-13.03349609 8.53546387 -14.1565918 9.1656543 -15.3137207 9.81494141 C-23.9451344 14.66854663 -32.51193906 19.62872367 -41.0534668 24.63891602 C-48.83751509 29.20342814 -56.66253044 33.69225762 -64.51489258 38.13818359 C-65.33505859 38.60401855 -66.15522461 39.06985352 -67.00024414 39.54980469 C-67.72203857 39.9581958 -68.44383301 40.36658691 -69.1875 40.78735352 C-70.82219253 41.67324455 -70.82219253 41.67324455 -71.84790039 42.78027344 C-71.94296091 45.33617232 -71.973468 47.86495315 -71.96142578 50.42114258 C-71.96157181 51.22108139 -71.96171783 52.0210202 -71.96186829 52.84519958 C-71.96116894 55.50197008 -71.95337557 58.15867136 -71.94555664 60.81542969 C-71.94369254 62.65246034 -71.9422686 64.4894915 -71.94126892 66.32652283 C-71.93744314 71.17137006 -71.92761235 76.01618752 -71.91656494 80.86102295 C-71.90635211 85.80089922 -71.90177158 90.74078029 -71.89672852 95.68066406 C-71.88599013 105.38054697 -71.86891299 115.08040773 -71.84790039 124.78027344 C-71.24331497 125.10778595 -70.63872955 125.43529846 -70.01582336 125.7727356 C-59.27250099 131.59784808 -48.54965876 137.42427457 -38.03540039 143.65527344 C-37.0616748 144.21754639 -36.08794922 144.77981934 -35.0847168 145.35913086 C-29.72215467 148.45785176 -24.46282458 151.65642452 -19.26586914 155.02636719 C-8.89465688 162.15712662 -8.89465688 162.15712662 2.99194336 164.58886719 C6.04155882 163.11396225 8.53875517 161.42293916 11.1628418 159.29003906 C15.26284283 156.17830534 19.87268625 153.81998767 24.33959961 151.28027344 C26.40607835 150.06646476 28.47114737 148.85025336 30.53491211 147.63183594 C40.66980381 141.69511764 50.97053881 136.05268016 61.25976562 130.38916016 C64.57235711 128.54650143 67.86093656 126.66093804 71.15209961 124.78027344 C71.15209961 97.39027344 71.15209961 70.00027344 71.15209961 41.78027344 C63.89209961 37.82027344 56.63209961 33.86027344 49.15209961 29.78027344 C45.19724905 27.51020343 41.25882201 25.23328495 37.33959961 22.90527344 C28.68224442 17.81169041 19.97541332 12.81796143 11.21459961 7.90527344 C10.1236499 7.29184082 9.0327002 6.6784082 7.90869141 6.04638672 C6.90749268 5.48677246 5.90629395 4.9271582 4.87475586 4.35058594 C3.54069702 3.60446045 3.54069702 3.60446045 2.1796875 2.84326172 C-1.21732392 1.06233605 -2.27506654 2.50745197 -5.57055664 4.35058594 Z " fill="#6E51AC" transform="translate(101.847900390625,15.2197265625)"/>
<path d="M0 0 C2.64 0 5.28 0 8 0 C8 6.27 8 12.54 8 19 C15.59 19 23.18 19 31 19 C31 12.73 31 6.46 31 0 C33.64 0 36.28 0 39 0 C39 15.51 39 31.02 39 47 C36.36 47 33.72 47 31 47 C31 40.07 31 33.14 31 26 C23.41 26 15.82 26 8 26 C8 32.93 8 39.86 8 47 C5.36 47 2.72 47 0 47 C0 31.49 0 15.98 0 0 Z " fill="#DDCDF3" transform="translate(358,64)"/>
<path d="M0 0 C10.89 0 21.78 0 33 0 C33 2.31 33 4.62 33 7 C25.08 7 17.16 7 9 7 C9 10.96 9 14.92 9 19 C15.27 19 21.54 19 28 19 C28 21.31 28 23.62 28 26 C21.73 26 15.46 26 9 26 C9 30.62 9 35.24 9 40 C17.25 40 25.5 40 34 40 C34 42.31 34 44.62 34 47 C22.78 47 11.56 47 0 47 C0 31.49 0 15.98 0 0 Z " fill="#DBCBF1" transform="translate(260,64)"/>
<path d="M0 0 C3.53458501 3.08641993 5.5800449 6.24050888 6 11 C2.94768215 11.2934921 0.04245039 11.43764884 -3 11 C-5.3125 8.625 -5.3125 8.625 -7 6 C-10.88979888 3.47711526 -14.06789135 3.82794902 -18.5234375 4.40625 C-22.64516248 5.39442381 -24.22905391 6.74413835 -27 10 C-29.36004091 16.05401799 -29.44315131 21.66499022 -28 28 C-26.03189443 32.16330024 -24.6537788 33.63678956 -20.625 35.875 C-17.01188795 36.99631064 -14.72931097 37.55542929 -11 37 C-7.3421782 34.96006092 -5.33053826 33.49580738 -3 30 C-1.0546875 29.70703125 -1.0546875 29.70703125 1.125 29.8125 C2.40375 29.874375 3.6825 29.93625 5 30 C4.54451813 34.89643015 3.59042714 37.58909421 0 41 C-6.31678971 45.03171401 -12.62356677 46.03248777 -20 45 C-28.06439758 42.86046595 -32.48997769 38.24127874 -36.63671875 31.234375 C-39.31730639 24.87470003 -39.02822381 17.15169614 -37.37890625 10.4921875 C-34.61660083 4.23096187 -29.19024116 -0.3694323 -23.1875 -3.4375 C-14.80057914 -4.91754486 -7.29969955 -4.76386015 0 0 Z " fill="#DCCCF2" transform="translate(341,67)"/>
<path d="M0 0 C15.3 0 15.3 0 20 3 C23.33971352 6.51098088 24.26692804 9.2737354 24.4375 14 C24.24946272 18.31188932 23.47567634 21.37490251 21 25 C14.54150646 30.85300977 9.57009074 29 0 29 C0 19.43 0 9.86 0 0 Z " fill="#8F6EC4" transform="translate(361,137)"/>
<path d="M0 0 C11.55 0 23.1 0 35 0 C35 2.31 35 4.62 35 7 C30.71 7 26.42 7 22 7 C22 20.2 22 33.4 22 47 C19.36 47 16.72 47 14 47 C14 33.8 14 20.6 14 7 C9.38 7 4.76 7 0 7 C0 4.69 0 2.38 0 0 Z " fill="#DECEF5" transform="translate(215,64)"/>
<path d="M0 0 C2.1923627 2.76275594 3.81767327 5.46581745 5.3046875 8.66015625 C5.72363281 9.53607422 6.14257812 10.41199219 6.57421875 11.31445312 C7.44149482 13.14667148 8.300884 14.98264387 9.15234375 16.82226562 C12.15807775 23.23128258 12.15807775 23.23128258 18 27 C17.505 29.475 17.505 29.475 17 32 C15.9171875 32.1546875 15.9171875 32.1546875 14.8125 32.3125 C10.05932856 33.47438635 6.4149758 36.34542389 2.5859375 39.30078125 C1.75102783 39.94152588 0.91611816 40.58227051 0.0559082 41.24243164 C-1.27114136 42.26711548 -1.27114136 42.26711548 -2.625 43.3125 C-8.19739978 47.61196435 -13.77335401 51.87799877 -19.53515625 55.921875 C-20.40253418 56.53635498 -21.26991211 57.15083496 -22.16357422 57.78393555 C-23.80954753 58.94382291 -25.46579118 60.08931099 -27.13330078 61.21801758 C-32.10547959 64.74487074 -33.96142689 66.95535504 -35 73 C-36 74 -36 74 -38.4375 74.1875 C-41 74 -41 74 -43 72 C-43.25 69 -43.25 69 -43 66 C-42.01 65.01 -42.01 65.01 -41 64 C-39.99582031 64.09539062 -38.99164063 64.19078125 -37.95703125 64.2890625 C-32.1806459 63.86709555 -29.11058737 60.91805161 -24.6875 57.375 C-23.8224585 56.70364014 -22.95741699 56.03228027 -22.06616211 55.34057617 C-20.26533726 53.94018949 -18.4702172 52.53243815 -16.68066406 51.11767578 C-14.08904863 49.07034679 -11.48185882 47.04511114 -8.8671875 45.02734375 C-3.29902941 40.72794938 -3.29902941 40.72794938 2.22607422 36.37353516 C3.74760685 35.1954258 5.33929484 34.10891538 6.94140625 33.04296875 C9.26291843 31.05724379 9.26291843 31.05724379 10.02734375 27.71484375 C9.99369005 23.14274883 8.76180388 20.47651537 6.5625 16.5625 C6.22412109 15.92634766 5.88574219 15.29019531 5.53710938 14.63476562 C4.70768013 13.08104605 3.85606297 11.5392055 3 10 C2.76925781 10.60328125 2.53851563 11.2065625 2.30078125 11.828125 C-0.1906311 17.93356239 -2.50149143 21.01436 -8.3125 24.3125 C-13.74474588 25.7021443 -18.9923778 24.34732291 -24 22 C-21.02709228 17.88972986 -18.64589698 14.90272231 -13.6875 13.375 C-11.8621875 12.694375 -11.8621875 12.694375 -10 12 C-9.85304687 11.22527344 -9.70609375 10.45054688 -9.5546875 9.65234375 C-8.81252655 6.10356006 -7.3360593 5.26956372 -4.4375 3.1875 C-3.61121094 2.58292969 -2.78492188 1.97835937 -1.93359375 1.35546875 C-0.97646484 0.68451172 -0.97646484 0.68451172 0 0 Z " fill="#241743" transform="translate(140,87)"/>
<path d="M0 0 C2.701875 -0.103125 5.40375 -0.20625 8.1875 -0.3125 C9.02949951 -0.35802002 9.87149902 -0.40354004 10.73901367 -0.45043945 C14.95811733 -0.52817166 16.55050985 -0.3480488 20.01171875 2.33203125 C22 5 22 5 22.625 8 C21.80695681 11.92660732 20.00495843 13.44578533 17 16 C18.68673918 20.49797113 20.81673892 24.72886302 23 29 C20.7109375 29.37109375 20.7109375 29.37109375 18 29 C16.2265625 26.41015625 16.2265625 26.41015625 14.625 23.0625 C12.55370011 18.79991264 12.55370011 18.79991264 8.99609375 15.98046875 C6.87745562 15.66298334 6.87745562 15.66298334 4 16 C4 20.29 4 24.58 4 29 C2.68 29 1.36 29 0 29 C0 19.43 0 9.86 0 0 Z " fill="#8C6CC0" transform="translate(250,137)"/>
<path d="M0 0 C1.35814777 4.0744433 -0.05254238 6.81468116 -1.4375 10.6875 C-1.68048828 11.38939453 -1.92347656 12.09128906 -2.17382812 12.81445312 C-2.7744944 14.54578532 -3.38619719 16.27328137 -4 18 C-5.32 18 -6.64 18 -8 18 C-7.51421457 14.87709365 -7.0013988 12.00419641 -6 9 C-8.20922483 10.7280375 -10.41739506 12.45739512 -12.625 14.1875 C-13.24246094 14.67025391 -13.85992187 15.15300781 -14.49609375 15.65039062 C-17.49428024 18.00160003 -20.44935356 20.37590572 -23.3359375 22.86328125 C-26 25 -26 25 -28 25 C-27.938125 26.175625 -27.938125 26.175625 -27.875 27.375 C-28 30 -28 30 -30 32 C-35.56818182 31.43181818 -35.56818182 31.43181818 -37 30 C-37.1875 27.0625 -37.1875 27.0625 -37 24 C-34.43048029 21.43048029 -32.35726995 21.3194831 -28.875 20.66015625 C-26.61695499 20.07609358 -26.61695499 20.07609358 -25 17 C-25.66 16.34 -26.32 15.68 -27 15 C-27.25 12 -27.25 12 -27 9 C-25 7 -25 7 -22.5 6.75 C-20 7 -20 7 -18 9 C-18 9.99 -18 10.98 -18 12 C-15.36 10.02 -12.72 8.04 -10 6 C-12.97 5.67 -15.94 5.34 -19 5 C-19 4.01 -19 3.02 -19 2 C-13.66599596 -0.66700202 -5.85329659 -0.15819721 0 0 Z " fill="#B293DC" transform="translate(159,69)"/>
<path d="M0 0 C5.62614342 1.12522868 5.62614342 1.12522868 8.515625 4.96484375 C9.12664062 5.76470703 9.73765625 6.56457031 10.3671875 7.38867188 C10.98851562 8.22978516 11.60984375 9.07089844 12.25 9.9375 C13.20519531 11.19336914 13.20519531 11.19336914 14.1796875 12.47460938 C18.77673666 18.55347331 18.77673666 18.55347331 20 21 C20.33 14.07 20.66 7.14 21 0 C21.99 0 22.98 0 24 0 C24 9.57 24 19.14 24 29 C19.00690315 27.75172579 17.43723336 25.2381484 14.5 21.3125 C14.02691406 20.69955078 13.55382812 20.08660156 13.06640625 19.45507812 C10.20593155 15.71902876 7.62073932 11.93110898 5 8 C4.67 14.93 4.34 21.86 4 29 C2.68 29 1.36 29 0 29 C0 19.43 0 9.86 0 0 Z " fill="#906FC6" transform="translate(321,137)"/>
<path d="M0 0 C0.33 0.66 0.66 1.32 1 2 C20.14 2.33 39.28 2.66 59 3 C59 3.66 59 4.32 59 5 C57.92005013 5.00879936 57.92005013 5.00879936 56.81828308 5.01777649 C50.03486974 5.07566863 43.25173902 5.14772514 36.46865368 5.23571491 C32.9813232 5.28045208 29.49411043 5.31970032 26.0065918 5.34643555 C21.99758213 5.37740851 17.98920633 5.43219816 13.98046875 5.48828125 C12.72727341 5.49467117 11.47407806 5.5010611 10.1829071 5.50764465 C8.44144157 5.53733589 8.44144157 5.53733589 6.66479492 5.56762695 C5.64109299 5.57873001 4.61739105 5.58983307 3.56266785 5.60127258 C0.57249111 6.06651643 0.01263886 6.87630686 -2 9 C-3.32 9 -4.64 9 -6 9 C-6.33257812 10.17755859 -6.33257812 10.17755859 -6.671875 11.37890625 C-7.76706186 14.36490102 -8.95767029 16.92720539 -10.453125 19.71484375 C-10.906875 20.56626953 -11.360625 21.41769531 -11.828125 22.29492188 C-12.77794856 24.06018461 -13.7416041 25.81807277 -14.71875 27.56835938 C-17.69043703 33.00075825 -17.69043703 33.00075825 -17.4921875 38.9765625 C-15.65099232 42.70715169 -13.61192751 44.03699592 -10 46 C-11.75 46.75 -11.75 46.75 -14 47 C-15.33333333 45.66666667 -16.66666667 44.33333333 -18 43 C-20.58354218 42.83312552 -20.58354218 42.83312552 -23 43 C-23.66 42.34 -24.32 41.68 -25 41 C-24.625 38.375 -24.625 38.375 -24 36 C-23.38125 35.95875 -22.7625 35.9175 -22.125 35.875 C-21.42375 35.58625 -20.7225 35.2975 -20 35 C-19.73316406 34.19691406 -19.46632813 33.39382812 -19.19140625 32.56640625 C-18.1836221 29.54966222 -17.06468475 27.07551235 -15.58203125 24.28515625 C-15.13279297 23.43373047 -14.68355469 22.58230469 -14.22070312 21.70507812 C-13.28091301 19.94150528 -12.33033405 18.18364001 -11.36914062 16.43164062 C-8.52077348 10.97810989 -7.52998674 7.99734132 -9 2 C-6.85594644 -2.03586553 -3.9654671 -1.12067548 0 0 Z " fill="#503981" transform="translate(73,77)"/>
<path d="M0 0 C10 0 10 0 13.625 1.875 C16.54112044 5.71200057 16.57959423 7.91013943 16.40625 12.59765625 C15.97209001 15.16504465 15.45113578 16.83724956 14 19 C10 21 10 21 0 21 C0 14.07 0 7.14 0 0 Z " fill="#12091F" transform="translate(365,141)"/>
<path d="M0 0 C1.8376813 0.87945446 3.64152528 1.83163452 5.4140625 2.8359375 C6.42210938 3.40570313 7.43015625 3.97546875 8.46875 4.5625 C10.03109375 5.4596875 10.03109375 5.4596875 11.625 6.375 C12.67429687 6.96539062 13.72359375 7.55578125 14.8046875 8.1640625 C23.28705438 12.99248672 23.28705438 12.99248672 26 16 C21.95284402 14.75639851 18.43557957 13.26943238 14.77734375 11.14453125 C13.82666016 10.60505859 12.87597656 10.06558594 11.89648438 9.50976562 C9.91581831 8.3736608 7.9392636 7.23035951 5.96679688 6.08007812 C5.01740234 5.54447266 4.06800781 5.00886719 3.08984375 4.45703125 C2.23253662 3.96178955 1.37522949 3.46654785 0.49194336 2.95629883 C-2.56157935 1.78449042 -3.91391107 1.99657557 -7 3 C-8.69679039 3.77718574 -10.36301274 4.6232121 -12 5.51953125 C-12.95946533 6.041521 -13.91893066 6.56351074 -14.9074707 7.10131836 C-15.92800537 7.6660083 -16.94854004 8.23069824 -18 8.8125 C-19.05856201 9.39201416 -20.11712402 9.97152832 -21.20776367 10.56860352 C-30.01154028 15.40690432 -38.73628898 20.38049119 -47.4453125 25.38671875 C-51.17949302 27.53252516 -54.92102922 29.66132075 -58.6875 31.75 C-59.89986328 32.42289063 -59.89986328 32.42289063 -61.13671875 33.109375 C-63 34 -63 34 -65 34 C-64.67 57.1 -64.34 80.2 -64 104 C-62.68 104.66 -61.36 105.32 -60 106 C-60 106.66 -60 107.32 -60 108 C-65.875 106.125 -65.875 106.125 -67 105 C-67.09432985 102.79132169 -67.11742431 100.57958479 -67.11352539 98.36889648 C-67.11367142 97.67624695 -67.11381744 96.98359741 -67.1139679 96.2699585 C-67.11326874 93.97030554 -67.10547628 91.67073263 -67.09765625 89.37109375 C-67.09579208 87.78068588 -67.09436817 86.19027743 -67.09336853 84.59986877 C-67.08954329 80.4060407 -67.07971295 76.21224705 -67.06866455 72.01843262 C-67.05845057 67.74211086 -67.05387094 63.46578356 -67.04882812 59.18945312 C-67.03809069 50.79295292 -67.02101419 42.39648074 -67 34 C-53.54241073 26.37722986 -40.06962623 18.78747064 -26.52929688 11.3125 C-25.45357422 10.71695313 -24.37785156 10.12140625 -23.26953125 9.5078125 C-22.23393066 8.93708008 -21.19833008 8.36634766 -20.13134766 7.77832031 C-17.9661049 6.5486596 -15.82611923 5.27383433 -13.70849609 3.96386719 C-12.65355957 3.31321289 -11.59862305 2.66255859 -10.51171875 1.9921875 C-9.57158936 1.39519043 -8.63145996 0.79819336 -7.6628418 0.18310547 C-4.45935843 -1.24020803 -3.27756529 -1.1358376 0 0 Z " fill="#3D2A63" transform="translate(105,29)"/>
<path d="M0 0 C6.27 0 12.54 0 19 0 C19 1.32 19 2.64 19 4 C14.05 4 9.1 4 4 4 C4 6.64 4 9.28 4 12 C7.96 12 11.92 12 16 12 C16 13.32 16 14.64 16 16 C12.04 16 8.08 16 4 16 C4 18.97 4 21.94 4 25 C9.28 25 14.56 25 20 25 C20 26.32 20 27.64 20 29 C13.4 29 6.8 29 0 29 C0 19.43 0 9.86 0 0 Z " fill="#8F6FC5" transform="translate(287,137)"/>
<path d="M0 0 C2.1923627 2.76275594 3.81767327 5.46581745 5.3046875 8.66015625 C5.72363281 9.53607422 6.14257812 10.41199219 6.57421875 11.31445312 C7.44149482 13.14667148 8.300884 14.98264387 9.15234375 16.82226562 C12.15807775 23.23128258 12.15807775 23.23128258 18 27 C17.505 29.475 17.505 29.475 17 32 C15.9171875 32.1546875 15.9171875 32.1546875 14.8125 32.3125 C10.05932856 33.47438635 6.4149758 36.34542389 2.5859375 39.30078125 C1.75102783 39.94152588 0.91611816 40.58227051 0.0559082 41.24243164 C-1.27114136 42.26711548 -1.27114136 42.26711548 -2.625 43.3125 C-8.19739978 47.61196435 -13.77335401 51.87799877 -19.53515625 55.921875 C-20.40253418 56.53635498 -21.26991211 57.15083496 -22.16357422 57.78393555 C-23.80954753 58.94382291 -25.46579118 60.08931099 -27.13330078 61.21801758 C-32.10547959 64.74487074 -33.96142689 66.95535504 -35 73 C-36 74 -36 74 -38.4375 74.1875 C-41 74 -41 74 -43 72 C-43.25 69 -43.25 69 -43 66 C-42.01 65.01 -42.01 65.01 -41 64 C-39.99582031 64.09539062 -38.99164063 64.19078125 -37.95703125 64.2890625 C-32.1806459 63.86709555 -29.11058737 60.91805161 -24.6875 57.375 C-23.8224585 56.70364014 -22.95741699 56.03228027 -22.06616211 55.34057617 C-20.26533726 53.94018949 -18.4702172 52.53243815 -16.68066406 51.11767578 C-14.08904863 49.07034679 -11.48185882 47.04511114 -8.8671875 45.02734375 C-3.29902941 40.72794938 -3.29902941 40.72794938 2.22607422 36.37353516 C3.74760685 35.1954258 5.33929484 34.10891538 6.94140625 33.04296875 C9.21339806 31.06968778 9.21339806 31.06968778 10.15625 27.95703125 C9.92346466 22.06174247 7.29647785 17.79425752 4.5 12.6875 C3.44117256 10.7158465 2.38872162 8.74075068 1.34375 6.76171875 C0.63508789 5.4617395 0.63508789 5.4617395 -0.08789062 4.13549805 C-0.38888672 3.43078369 -0.68988281 2.72606934 -1 2 C-0.67 1.34 -0.34 0.68 0 0 Z " fill="#4C367C" transform="translate(140,87)"/>
<path d="M0 0 C2.69990662 1.79993774 4.5418865 3.083773 6 6 C6.4375 9.3125 6.4375 9.3125 6 13 C3.14550176 16.19431946 1.21258487 17.74737815 -3 18.625 C-7.21258487 17.74737815 -9.14550176 16.19431946 -12 13 C-12.77152986 8.67943279 -12.52747866 6.80880061 -10.125 3.125 C-6.79974618 -0.20025382 -4.65430991 -0.45630489 0 0 Z " fill="#11081E" transform="translate(382,186)"/>
<path d="M0 0 C2.69990662 1.79993774 4.5418865 3.083773 6 6 C6.4375 9.3125 6.4375 9.3125 6 13 C3.14550176 16.19431946 1.21258487 17.74737815 -3 18.625 C-7.21258487 17.74737815 -9.14550176 16.19431946 -12 13 C-12.77152986 8.67943279 -12.52747866 6.80880061 -10.125 3.125 C-6.79974618 -0.20025382 -4.65430991 -0.45630489 0 0 Z " fill="#12081E" transform="translate(267,186)"/>
<path d="M0 0 C2.1875 2.5 2.1875 2.5 3 5 C0.08198264 7.65274306 -1.72311803 8.93794025 -5.625 9.8125 C-9.32656881 10.67538426 -9.32656881 10.67538426 -10.6875 14.375 C-11.3371875 16.169375 -11.3371875 16.169375 -12 18 C-14.0625 20.4375 -14.0625 20.4375 -16 22 C-16.66 22 -17.32 22 -18 22 C-20.47975234 18.28037149 -20.67486349 14.31579369 -20 10 C-15.4776392 1.2902681 -9.68427861 -1.85118122 0 0 Z " fill="#231542" transform="translate(132,82)"/>
<path d="M0 0 C6.93 0 13.86 0 21 0 C21 1.32 21 2.64 21 4 C18.36 4 15.72 4 13 4 C13 12.25 13 20.5 13 29 C11.68 29 10.36 29 9 29 C9 20.75 9 12.5 9 4 C6.03 4 3.06 4 0 4 C0 2.68 0 1.36 0 0 Z " fill="#8F6EC4" transform="translate(216,137)"/>
<path d="M0 0 C0.99 0 1.98 0 3 0 C2.91574529 10.78743631 2.82092047 21.57472236 2.71247292 32.3619442 C2.66245514 37.37049955 2.61612575 42.37903323 2.578125 47.38769531 C2.54134123 52.21828693 2.49500048 57.04869969 2.44193649 61.87913895 C2.42335569 63.72515359 2.40826146 65.57120662 2.39665604 67.41727829 C2.37985637 69.9963094 2.35083733 72.57492757 2.31884766 75.15380859 C2.31668747 75.92272934 2.31452728 76.69165009 2.31230164 77.48387146 C2.22810432 82.77189568 2.22810432 82.77189568 0 85 C0 56.95 0 28.9 0 0 Z " fill="#7556B5" transform="translate(28,56)"/>
<path d="M0 0 C1.32 0.33 2.64 0.66 4 1 C5.265625 3.21484375 5.265625 3.21484375 6.25 5.9375 C6.58515625 6.83339844 6.9203125 7.72929687 7.265625 8.65234375 C8 11 8 11 8 13 C8.66 13 9.32 13 10 13 C10.19335938 12.39671875 10.38671875 11.7934375 10.5859375 11.171875 C10.84632813 10.37265625 11.10671875 9.5734375 11.375 8.75 C11.63023437 7.96109375 11.88546875 7.1721875 12.1484375 6.359375 C12.95173667 4.13372042 13.89711662 2.09068328 15 0 C16.32 0 17.64 0 19 0 C19 5.94 19 11.88 19 18 C18.01 18 17.02 18 16 18 C15.67 14.7 15.34 11.4 15 8 C13.35 11.3 11.7 14.6 10 18 C7 17 7 17 5.83203125 14.71484375 C4.88802083 12.14322917 3.94401042 9.57161458 3 7 C2.67 10.63 2.34 14.26 2 18 C1.34 18 0.68 18 0 18 C0 12.06 0 6.12 0 0 Z " fill="#583385" transform="translate(219,186)"/>
<path d="M0 0 C8.3984375 -0.1953125 8.3984375 -0.1953125 11 0 C13 2 13 2 13.25 4.875 C13 8 13 8 11.8125 10 C11.544375 10.66 11.27625 11.32 11 12 C12.28322447 15.23394361 12.28322447 15.23394361 14 18 C12.1875 17.875 12.1875 17.875 10 17 C9.525625 16.01 9.05125 15.02 8.5625 14 C7.31845769 10.75674092 7.31845769 10.75674092 4.3125 10.125 C3.1678125 10.063125 3.1678125 10.063125 2 10 C2 12.64 2 15.28 2 18 C1.34 18 0.68 18 0 18 C0 12.06 0 6.12 0 0 Z " fill="#653B98" transform="translate(405,186)"/>
<path d="M0 0 C4.7058812 1.1764703 5.39507754 2.30351876 8.25 6.0625 C8.95640625 6.98160156 9.6628125 7.90070313 10.390625 8.84765625 C10.92171875 9.55792969 11.4528125 10.26820313 12 11 C12.33 7.37 12.66 3.74 13 0 C13.99 0 14.98 0 16 0 C16 5.94 16 11.88 16 18 C11.21162514 16.80290628 9.931528 14.75889577 7.25 10.9375 C6.83878906 10.36966797 6.42757813 9.80183594 6.00390625 9.21679688 C4.99304964 7.81805343 3.99522794 6.40990625 3 5 C2.67 9.29 2.34 13.58 2 18 C1.34 18 0.68 18 0 18 C0 12.06 0 6.12 0 0 Z " fill="#5C358A" transform="translate(290,186)"/>
<path d="M0 0 C0.85842249 9.65248396 0.85842249 9.65248396 -2 13.5625 C-5.98325839 16.79889744 -7.89510099 17.08103014 -13 17 C-15.5 15.5625 -15.5 15.5625 -17 14 C-14.3401439 10.55783328 -11.09711714 10.00495326 -7 9 C-6.938125 8.2575 -6.87625 7.515 -6.8125 6.75 C-5.94641035 3.81861964 -3.5372257 0 0 0 Z " fill="#342554" transform="translate(137,90)"/>
<path d="M0 0 C0.99 0.66 1.98 1.32 3 2 C0.41514124 4.27467571 -1.11927587 5.02511071 -4.5625 5.75 C-8.34029032 6.6776197 -8.34029032 6.6776197 -9.75 10.5 C-10.1625 11.655 -10.575 12.81 -11 14 C-11.99 14.66 -12.98 15.32 -14 16 C-15.60306924 12.79386153 -15.48740461 9.47860003 -15 6 C-10.98114441 -0.60240561 -7.40151408 -1.6148758 0 0 Z " fill="#322352" transform="translate(131,86)"/>
<path d="M0 0 C2.69990662 1.79993774 4.5418865 3.083773 6 6 C6.4375 9.3125 6.4375 9.3125 6 13 C3.14550176 16.19431946 1.21258487 17.74737815 -3 18.625 C-7.21258487 17.74737815 -9.14550176 16.19431946 -12 13 C-12.77152986 8.67943279 -12.52747866 6.80880061 -10.125 3.125 C-6.79974618 -0.20025382 -4.65430991 -0.45630489 0 0 Z M-7.8125 3 C-9.71481722 6.20390268 -9.53498173 9.37568715 -9 13 C-8.12129086 15.212981 -8.12129086 15.212981 -6 16 C-0.95434998 15.80862516 -0.95434998 15.80862516 3 13 C3.27922749 10.06811139 3.47143881 7.84609353 3 5 C0.89806836 2.50882177 -0.36340489 2.09316026 -3.5625 1.625 C-5.98111011 1.85390222 -5.98111011 1.85390222 -7.8125 3 Z " fill="#5E378E" transform="translate(382,186)"/>
<path d="M0 0 C2.69990662 1.79993774 4.5418865 3.083773 6 6 C6.4375 9.3125 6.4375 9.3125 6 13 C3.14550176 16.19431946 1.21258487 17.74737815 -3 18.625 C-7.21258487 17.74737815 -9.14550176 16.19431946 -12 13 C-12.77152986 8.67943279 -12.52747866 6.80880061 -10.125 3.125 C-6.79974618 -0.20025382 -4.65430991 -0.45630489 0 0 Z M-7.8125 3 C-9.71233631 6.19972431 -9.54304262 9.37971584 -9 13 C-8.03882095 15.12870693 -8.03882095 15.12870693 -6 16 C-2.91184125 16.38601984 -0.89815624 16.47901666 1.875 15 C3.68498652 11.78224619 3.67345584 8.59176448 3 5 C0.89806836 2.50882177 -0.36340489 2.09316026 -3.5625 1.625 C-5.98111011 1.85390222 -5.98111011 1.85390222 -7.8125 3 Z " fill="#603890" transform="translate(267,186)"/>
<path d="M0 0 C1.97909398 -0.02686553 3.95828971 -0.04633375 5.9375 -0.0625 C7.03964844 -0.07410156 8.14179688 -0.08570313 9.27734375 -0.09765625 C12 0 12 0 13 1 C13.1875 3.4375 13.1875 3.4375 13 6 C11 8 11 8 8.3984375 8.1953125 C7.40070313 8.17210937 6.40296875 8.14890625 5.375 8.125 C3.87066406 8.09792969 3.87066406 8.09792969 2.3359375 8.0703125 C1.56507813 8.04710937 0.79421875 8.02390625 0 8 C0 5.36 0 2.72 0 0 Z " fill="#12091E" transform="translate(255,141)"/>
<path d="M0 0 C2.1923627 2.76275594 3.81767327 5.46581745 5.3046875 8.66015625 C5.72363281 9.53607422 6.14257812 10.41199219 6.57421875 11.31445312 C7.44149482 13.14667148 8.300884 14.98264387 9.15234375 16.82226562 C12.15807775 23.23128258 12.15807775 23.23128258 18 27 C17.67 28.65 17.34 30.3 17 32 C15.34385343 32.38218767 13.67542976 32.71395102 12 33 C10.45867865 31.45867865 10.59185295 29.72634582 10.26171875 27.59375 C9.12080729 21.64448466 6.67086978 16.79650766 3.8125 11.5 C2.87449837 9.74330954 1.94312092 7.98306022 1.01953125 6.21875 C0.60807861 5.45498047 0.19662598 4.69121094 -0.22729492 3.90429688 C-0.60978394 2.96166992 -0.60978394 2.96166992 -1 2 C-0.67 1.34 -0.34 0.68 0 0 Z " fill="#4C367C" transform="translate(140,87)"/>
<path d="M0 0 C1.33157895 5.44736842 1.33157895 5.44736842 -0.125 7.875 C-2.61629254 9.36977553 -4.14449042 9.43930917 -7 9 C-9 6 -9 6 -8.75 2.875 C-8.37875 1.451875 -8.37875 1.451875 -8 0 C-5.13822943 -1.43088528 -3.06624227 -0.59991697 0 0 Z " fill="#9573CD" transform="translate(73,77)"/>
<path d="M0 0 C2.5 0.25 2.5 0.25 4.5 2.25 C4.75 5.25 4.75 5.25 4.5 8.25 C2.5 10.25 2.5 10.25 0 10.5 C-2.5 10.25 -2.5 10.25 -4.5 8.25 C-4.75 5.25 -4.75 5.25 -4.5 2.25 C-2.5 0.25 -2.5 0.25 0 0 Z " fill="#9573CD" transform="translate(101.5,150.75)"/>
<path d="M0 0 C5.56818182 0.56818182 5.56818182 0.56818182 7 2 C7.1875 4.9375 7.1875 4.9375 7 8 C6.34 8.66 5.68 9.32 5 10 C-0.56818182 9.43181818 -0.56818182 9.43181818 -2 8 C-2.1875 5.0625 -2.1875 5.0625 -2 2 C-1.34 1.34 -0.68 0.68 0 0 Z " fill="#C3A4EB" transform="translate(124,91)"/>
<path d="M0 0 C2.5625 0.4375 2.5625 0.4375 4.375 2.9375 C4.766875 3.7625 5.15875 4.5875 5.5625 5.4375 C3.25 7.9375 3.25 7.9375 0.5625 10.4375 C-0.4275 10.4375 -1.4175 10.4375 -2.4375 10.4375 C-4.4375 8.4375 -4.4375 8.4375 -4.6875 5.4375 C-4.37510823 1.68879879 -3.74211499 0.67166166 0 0 Z " fill="#9270CB" transform="translate(136.4375,75.5625)"/>
<path d="M0 0 C1.32 0.33 2.64 0.66 4 1 C5.12629629 3.39782551 5.97100667 5.55649314 6.75 8.0625 C6.97042969 8.72572266 7.19085938 9.38894531 7.41796875 10.07226562 C7.95997407 11.71006432 8.48192502 13.35447496 9 15 C8.01 15.495 8.01 15.495 7 16 C5.68 13.03 4.36 10.06 3 7 C2.67 10.63 2.34 14.26 2 18 C1.34 18 0.68 18 0 18 C0 12.06 0 6.12 0 0 Z " fill="#603891" transform="translate(219,186)"/>
<path d="M0 0 C0.99 0 1.98 0 3 0 C3 5.94 3 11.88 3 18 C1.68 17.67 0.36 17.34 -1 17 C-1.33 15.35 -1.66 13.7 -2 12 C-1.67 12 -1.34 12 -1 12 C-0.67 8.04 -0.34 4.08 0 0 Z " fill="#53307D" transform="translate(303,186)"/>
<path d="M0 0 C3.96 0 7.92 0 12 0 C12 0.66 12 1.32 12 2 C10.35 2 8.7 2 7 2 C7 7.28 7 12.56 7 18 C6.34 18 5.68 18 5 18 C5 12.72 5 7.44 5 2 C3.35 2 1.7 2 0 2 C0 1.34 0 0.68 0 0 Z " fill="#673C9A" transform="translate(343,186)"/>
<path d="M0 0 C2.64 0 5.28 0 8 0 C8.38218767 1.65614657 8.71395102 3.32457024 9 5 C8 6 8 6 6.15234375 6.09765625 C4.1015625 6.06510417 2.05078125 6.03255208 0 6 C0 4.02 0 2.04 0 0 Z " fill="#170B25" transform="translate(407,188)"/>
<path d="M0 0 C1.2065625 0.0309375 1.2065625 0.0309375 2.4375 0.0625 C3.0625 2.4375 3.0625 2.4375 3.4375 5.0625 C2.7775 5.7225 2.1175 6.3825 1.4375 7.0625 C-1.1875 6.6875 -1.1875 6.6875 -3.5625 6.0625 C-3.605221 4.39638095 -3.60313832 2.72867115 -3.5625 1.0625 C-2.5625 0.0625 -2.5625 0.0625 0 0 Z " fill="#644A9E" transform="translate(154.5625,112.9375)"/>
<path d="M0 0 C0.6875 1.8125 0.6875 1.8125 1 4 C-0.125 5.75 -0.125 5.75 -2 7 C-4.6875 7.1875 -4.6875 7.1875 -7 7 C-7.33 6.34 -7.66 5.68 -8 5 C-5.47211993 2.20127563 -3.79588866 0.54226981 0 0 Z " fill="#8C6BC6" transform="translate(73,79)"/>
<path d="M0 0 C0.99 0.33 1.98 0.66 3 1 C2.67 1.33 2.34 1.66 2 2 C1.95684856 4.67538915 1.95319559 7.32694821 2 10 C2 10.99 2 11.98 2 13 C0 11.9375 0 11.9375 -2 10 C-2.46913089 5.62144505 -2.46943529 3.70415293 0 0 Z " fill="#583385" transform="translate(257,189)"/>
<path d="M0 0 C1.2684375 0.12375 1.2684375 0.12375 2.5625 0.25 C3.2225 1.24 3.8825 2.23 4.5625 3.25 C1.5625 5.25 1.5625 5.25 -1.125 4.875 C-1.888125 4.66875 -2.65125 4.4625 -3.4375 4.25 C-3.4375 0.3525641 -3.4375 0.3525641 0 0 Z " fill="#8C6BC7" transform="translate(101.4375,150.75)"/>
<path d="M0 0 C0.33 0 0.66 0 1 0 C1.103125 0.78375 1.20625 1.5675 1.3125 2.375 C1.77595022 5.33045181 1.77595022 5.33045181 5 7 C2.6875 8.5625 2.6875 8.5625 0 10 C-0.99 9.67 -1.98 9.34 -3 9 C-2.01 6.03 -1.02 3.06 0 0 Z " fill="#9B7EC9" transform="translate(121,94)"/>
<path d="M0 0 C0.99 0.33 1.98 0.66 3 1 C3.33 2.98 3.66 4.96 4 7 C2.68 6.67 1.36 6.34 0 6 C-0.38218767 4.34385343 -0.71395102 2.67542976 -1 1 C-0.67 0.67 -0.34 0.34 0 0 Z " fill="#664BA1" transform="translate(49,113)"/>
<path d="M0 0 C2.25245881 2.68841859 3.88213958 4.64641875 5 8 C3.68 7.67 2.36 7.34 1 7 C0.67 4.69 0.34 2.38 0 0 Z " fill="#5B3588" transform="translate(414,196)"/>
<path d="M0 0 C0.33 0 0.66 0 1 0 C1.33 2.64 1.66 5.28 2 8 C0.68 8.99 -0.64 9.98 -2 11 C-2.66 10.34 -3.32 9.68 -4 9 C-3.01 8.34 -2.02 7.68 -1 7 C-0.26393501 3.43230448 -0.26393501 3.43230448 0 0 Z " fill="#573282" transform="translate(385,192)"/>
<path d="M0 0 C2.475 0.495 2.475 0.495 5 1 C5 1.99 5 2.98 5 4 C4.01 4 3.02 4 2 4 C1.34 2.68 0.68 1.36 0 0 Z " fill="#9674CC" transform="translate(132,82)"/>
</svg>
